<?xml version="1.0" encoding="UTF-8" standalone="no"?>
<!DOCTYPE svg PUBLIC "-//W3C//DTD SVG 1.1//EN" "http://www.w3.org/Graphics/SVG/1.1/DTD/svg11.dtd">
<!-- Generated by Microsoft Visio, SVG Export X24061-Page-1.svg X#####-Page-1 -->
<svg xmlns="http://www.w3.org/2000/svg" xmlns:xlink="http://www.w3.org/1999/xlink" xmlns:ev="http://www.w3.org/2001/xml-events"
		xmlns:v="http://schemas.microsoft.com/visio/2003/SVGExtensions/" width="5.19106in" height="3.69438in"
		viewBox="0 0 373.757 265.995" xml:space="preserve" color-interpolation-filters="sRGB" class="st8">
	<v:documentProperties v:langID="1033" v:viewMarkup="false">
		<v:userDefs>
			<v:ud v:nameU="msvNoAutoConnect" v:val="VT0(1):26"/>
		</v:userDefs>
	</v:documentProperties>

	<style type="text/css">
	<![CDATA[
		.st1 {fill:#ffffff;stroke:none;stroke-linecap:round;stroke-linejoin:round;stroke-width:0.75}
		.st2 {stroke:#0c0c0c;stroke-linecap:round;stroke-linejoin:round;stroke-width:0.621726}
		.st3 {stroke:none;stroke-linecap:round;stroke-linejoin:round;stroke-width:0.75}
		.st4 {fill:#0c0c0c;font-family:Roboto;font-size:0.75em}
		.st5 {stroke:#000000;stroke-linecap:butt;stroke-width:0.5}
		.st6 {fill:#ffffff}
		.st7 {fill:#000000;font-family:Roboto;font-size:0.416656em}
		.st8 {fill:none;fill-rule:evenodd;font-size:12px;overflow:visible;stroke-linecap:square;stroke-miterlimit:3}
	]]>
	</style>

	<g v:mID="0" v:index="1" v:groupContext="foregroundPage">
		<v:userDefs>
			<v:ud v:nameU="tdlLastEdited" v:prompt="" v:val="VT4(Denise|2021.06.03.15.57.39)"/>
		</v:userDefs>
		<title>X24061-Page-1</title>
		<v:pageProperties v:drawingScale="1" v:pageScale="1" v:drawingUnits="0" v:shadowOffsetX="0" v:shadowOffsetY="0"/>
		<v:layer v:name="Flowchart" v:index="0"/>
		<v:layer v:name="Connector" v:index="1"/>
		<g id="shape20-1" v:mID="20" v:groupContext="shape" transform="translate(123.015,-241.955)">
			<title>Sheet.20</title>
			<path d="M0 246.99 L0 266 L89.21 266 L89.21 246.99 L0 246.99 L0 246.99 Z" class="st1"/>
		</g>
		<g id="shape21-3" v:mID="21" v:groupContext="shape" transform="translate(123.015,-241.955)">
			<title>Sheet.21</title>
			<path d="M0 246.99 L89.21 246.99 L89.21 266 L0 266 L0 246.99" class="st2"/>
		</g>
		<g id="shape22-6" v:mID="22" v:groupContext="shape" transform="translate(125.919,-250.085)">
			<title>Sheet.22</title>
			<desc>dsp</desc>
			<v:textBlock v:margins="rect(0,0,0,0)"/>
			<v:textRect cx="16.6334" cy="262.147" width="33.27" height="7.69707"/>
			<path d="M33.27 258.3 L0 258.3 L0 266 L33.27 266 L33.27 258.3" class="st3"/>
			<text x="3.43" y="264.85" class="st4" v:langID="1033"><v:paragraph v:horizAlign="1"/><v:tabList/>dsp</text>		</g>
		<g id="shape50-10" v:mID="50" v:groupContext="shape" transform="translate(0.310863,-210)">
			<title>Sheet.50</title>
			<path d="M0 246.99 L0 266 L70.56 266 L70.56 246.99 L0 246.99 L0 246.99 Z" class="st1"/>
		</g>
		<g id="shape51-12" v:mID="51" v:groupContext="shape" transform="translate(0.310863,-210.714)">
			<title>Sheet.51</title>
			<path d="M0 246.99 L70.56 246.99 L70.56 266 L0 266 L0 246.99" class="st2"/>
		</g>
		<g id="shape52-15" v:mID="52" v:groupContext="shape" transform="translate(3.2151,-218.844)">
			<title>Sheet.52</title>
			<desc>docs</desc>
			<v:textBlock v:margins="rect(0,0,0,0)"/>
			<v:textRect cx="16.6334" cy="262.147" width="33.27" height="7.69707"/>
			<path d="M33.27 258.3 L0 258.3 L0 266 L33.27 266 L33.27 258.3" class="st3"/>
			<text x="0" y="264.85" class="st4" v:langID="1033"><v:paragraph/><v:tabList/>docs</text>		</g>
		<g id="shape53-19" v:mID="53" v:groupContext="shape" transform="translate(86.7109,-210.247)">
			<title>Sheet.53</title>
			<path d="M0 246.99 L0 266 L70.56 266 L70.56 246.99 L0 246.99 L0 246.99 Z" class="st1"/>
		</g>
		<g id="shape54-21" v:mID="54" v:groupContext="shape" transform="translate(86.7109,-210.714)">
			<title>Sheet.54</title>
			<path d="M0 246.99 L70.56 246.99 L70.56 266 L0 266 L0 246.99" class="st2"/>
		</g>
		<g id="shape55-24" v:mID="55" v:groupContext="shape" transform="translate(89.6151,-218.844)">
			<title>Sheet.55</title>
			<desc>ext</desc>
			<v:textBlock v:margins="rect(0,0,0,0)"/>
			<v:textRect cx="16.6334" cy="262.147" width="33.27" height="7.69707"/>
			<path d="M33.27 258.3 L0 258.3 L0 266 L33.27 266 L33.27 258.3" class="st3"/>
			<text x="0" y="264.85" class="st4" v:langID="1033"><v:paragraph/><v:tabList/>ext</text>		</g>
		<g id="shape56-28" v:mID="56" v:groupContext="shape" transform="translate(177.641,-210.714)">
			<title>Sheet.56</title>
			<path d="M0 246.99 L0 266 L70.56 266 L70.56 246.99 L0 246.99 L0 246.99 Z" class="st1"/>
		</g>
		<g id="shape57-30" v:mID="57" v:groupContext="shape" transform="translate(177.641,-210.714)">
			<title>Sheet.57</title>
			<path d="M0 246.99 L70.56 246.99 L70.56 266 L0 266 L0 246.99" class="st2"/>
		</g>
		<g id="shape58-33" v:mID="58" v:groupContext="shape" transform="translate(180.546,-218.844)">
			<title>Sheet.58</title>
			<desc>L1</desc>
			<v:textBlock v:margins="rect(0,0,0,0)"/>
			<v:textRect cx="16.6334" cy="262.147" width="33.27" height="7.69707"/>
			<path d="M33.27 258.3 L0 258.3 L0 266 L33.27 266 L33.27 258.3" class="st3"/>
			<text x="0" y="264.85" class="st4" v:langID="1033"><v:paragraph/><v:tabList/>L1</text>		</g>
		<g id="shape59-37" v:mID="59" v:groupContext="shape" transform="translate(193.841,-187)">
			<title>Sheet.59</title>
			<path d="M0 246.99 L0 266 L67.67 266 L67.67 246.99 L0 246.99 L0 246.99 Z" class="st1"/>
		</g>
		<g id="shape60-39" v:mID="60" v:groupContext="shape" transform="translate(193.841,-187)">
			<title>Sheet.60</title>
			<path d="M0 246.99 L67.67 246.99 L67.67 266 L0 266 L0 246.99" class="st2"/>
		</g>
		<g id="shape61-42" v:mID="61" v:groupContext="shape" transform="translate(196.746,-195.13)">
			<title>Sheet.61</title>
			<desc>examples</desc>
			<v:textBlock v:margins="rect(0,0,0,0)"/>
			<v:textRect cx="25.6571" cy="262.147" width="51.32" height="7.69707"/>
			<path d="M51.31 258.3 L0 258.3 L0 266 L51.31 266 L51.31 258.3" class="st3"/>
			<text x="0" y="264.85" class="st4" v:langID="1033"><v:paragraph/><v:tabList/>examples</text>		</g>
		<g id="shape62-46" v:mID="62" v:groupContext="shape" transform="translate(193.841,-164.711)">
			<title>Sheet.62</title>
			<path d="M0 246.99 L0 266 L67.67 266 L67.67 246.99 L0 246.99 L0 246.99 Z" class="st1"/>
		</g>
		<g id="shape63-48" v:mID="63" v:groupContext="shape" transform="translate(193.841,-164.711)">
			<title>Sheet.63</title>
			<path d="M0 246.99 L67.67 246.99 L67.67 266 L0 266 L0 246.99" class="st2"/>
		</g>
		<g id="shape64-51" v:mID="64" v:groupContext="shape" transform="translate(196.746,-172.841)">
			<title>Sheet.64</title>
			<desc>include</desc>
			<v:textBlock v:margins="rect(0,0,0,0)"/>
			<v:textRect cx="25.6571" cy="262.147" width="51.32" height="7.69707"/>
			<path d="M51.31 258.3 L0 258.3 L0 266 L51.31 266 L51.31 258.3" class="st3"/>
			<text x="0" y="264.85" class="st4" v:langID="1033"><v:paragraph/><v:tabList/>include</text>		</g>
		<g id="shape66-55" v:mID="66" v:groupContext="shape" transform="translate(230.072,-142.245)">
			<title>Sheet.66</title>
			<path d="M0 246.99 L46.57 246.99 L46.57 266 L0 266 L0 246.99" class="st2"/>
		</g>
		<g id="shape67-58" v:mID="67" v:groupContext="shape" transform="translate(232.556,-150.375)">
			<title>Sheet.67</title>
			<desc>aie</desc>
			<v:textBlock v:margins="rect(0,0,0,0)"/>
			<v:textRect cx="16.6334" cy="262.147" width="33.27" height="7.69707"/>
			<path d="M33.27 258.3 L0 258.3 L0 266 L33.27 266 L33.27 258.3" class="st3"/>
			<text x="0" y="264.85" class="st4" v:langID="1033"><v:paragraph/><v:tabList/>aie</text>		</g>
		<g id="shape69-62" v:mID="69" v:groupContext="shape" transform="translate(230.072,-120.313)">
			<title>Sheet.69</title>
			<path d="M0 246.99 L46.57 246.99 L46.57 266 L0 266 L0 246.99" class="st2"/>
		</g>
		<g id="shape70-65" v:mID="70" v:groupContext="shape" transform="translate(232.556,-129.156)">
			<title>Sheet.70</title>
			<desc>hw</desc>
			<v:textBlock v:margins="rect(0,0,0,0)"/>
			<v:textRect cx="16.6334" cy="262.147" width="33.27" height="7.69707"/>
			<path d="M33.27 258.3 L0 258.3 L0 266 L33.27 266 L33.27 258.3" class="st3"/>
			<text x="0" y="264.85" class="st4" v:langID="1033"><v:paragraph/><v:tabList/>hw</text>		</g>
		<g id="shape71-69" v:mID="71" v:groupContext="shape" transform="translate(193.841,-97.3115)">
			<title>Sheet.71</title>
			<path d="M0 246.99 L0 266 L67.67 266 L67.67 246.99 L0 246.99 L0 246.99 Z" class="st1"/>
		</g>
		<g id="shape72-71" v:mID="72" v:groupContext="shape" transform="translate(193.841,-97.3115)">
			<title>Sheet.72</title>
			<path d="M0 246.99 L67.67 246.99 L67.67 266 L0 266 L0 246.99" class="st2"/>
		</g>
		<g id="shape73-74" v:mID="73" v:groupContext="shape" transform="translate(196.746,-105.442)">
			<title>Sheet.73</title>
			<desc>src</desc>
			<v:textBlock v:margins="rect(0,0,0,0)"/>
			<v:textRect cx="25.6571" cy="262.147" width="51.32" height="7.69707"/>
			<path d="M51.31 258.3 L0 258.3 L0 266 L51.31 266 L51.31 258.3" class="st3"/>
			<text x="0" y="264.85" class="st4" v:langID="1033"><v:paragraph/><v:tabList/>src</text>		</g>
		<g id="shape74-78" v:mID="74" v:groupContext="shape" transform="translate(230.072,-74.8449)">
			<title>Sheet.74</title>
			<path d="M0 246.99 L46.57 246.99 L46.57 266 L0 266 L0 246.99" class="st2"/>
		</g>
		<g id="shape75-81" v:mID="75" v:groupContext="shape" transform="translate(232.556,-82.975)">
			<title>Sheet.75</title>
			<desc>aie</desc>
			<v:textBlock v:margins="rect(0,0,0,0)"/>
			<v:textRect cx="16.6334" cy="262.147" width="33.27" height="7.69707"/>
			<path d="M33.27 258.3 L0 258.3 L0 266 L33.27 266 L33.27 258.3" class="st3"/>
			<text x="0" y="264.85" class="st4" v:langID="1033"><v:paragraph/><v:tabList/>aie</text>		</g>
		<g id="shape76-85" v:mID="76" v:groupContext="shape" transform="translate(193.841,-52.5789)">
			<title>Sheet.76</title>
			<path d="M0 246.99 L0 266 L67.67 266 L67.67 246.99 L0 246.99 L0 246.99 Z" class="st1"/>
		</g>
		<g id="shape77-87" v:mID="77" v:groupContext="shape" transform="translate(193.841,-52.5789)">
			<title>Sheet.77</title>
			<path d="M0 246.99 L67.67 246.99 L67.67 266 L0 266 L0 246.99" class="st2"/>
		</g>
		<g id="shape78-90" v:mID="78" v:groupContext="shape" transform="translate(196.746,-60.709)">
			<title>Sheet.78</title>
			<desc>test</desc>
			<v:textBlock v:margins="rect(0,0,0,0)"/>
			<v:textRect cx="25.6571" cy="262.147" width="51.32" height="7.69707"/>
			<path d="M51.31 258.3 L0 258.3 L0 266 L51.31 266 L51.31 258.3" class="st3"/>
			<text x="0" y="264.85" class="st4" v:langID="1033"><v:paragraph/><v:tabList/>test</text>		</g>
		<g id="shape79-94" v:mID="79" v:groupContext="shape" transform="translate(230.072,-30.1123)">
			<title>Sheet.79</title>
			<path d="M0 246.99 L46.57 246.99 L46.57 266 L0 266 L0 246.99" class="st2"/>
		</g>
		<g id="shape80-97" v:mID="80" v:groupContext="shape" transform="translate(232.556,-38.2424)">
			<title>Sheet.80</title>
			<desc>aie</desc>
			<v:textBlock v:margins="rect(0,0,0,0)"/>
			<v:textRect cx="16.6334" cy="262.147" width="33.27" height="7.69707"/>
			<path d="M33.27 258.3 L0 258.3 L0 266 L33.27 266 L33.27 258.3" class="st3"/>
			<text x="0" y="264.85" class="st4" v:langID="1033"><v:paragraph/><v:tabList/>aie</text>		</g>
		<g id="shape81-101" v:mID="81" v:groupContext="shape" transform="translate(230.072,-8.18059)">
			<title>Sheet.81</title>
			<path d="M0 246.99 L46.57 246.99 L46.57 266 L0 266 L0 246.99" class="st2"/>
		</g>
		<g id="shape82-104" v:mID="82" v:groupContext="shape" transform="translate(232.556,-17.0239)">
			<title>Sheet.82</title>
			<desc>hw</desc>
			<v:textBlock v:margins="rect(0,0,0,0)"/>
			<v:textRect cx="16.6334" cy="262.147" width="33.27" height="7.69707"/>
			<path d="M33.27 258.3 L0 258.3 L0 266 L33.27 266 L33.27 258.3" class="st3"/>
			<text x="0" y="264.85" class="st4" v:langID="1033"><v:paragraph/><v:tabList/>hw</text>		</g>
		<g id="shape83-108" v:mID="83" v:groupContext="shape" transform="translate(271.153,-210.714)">
			<title>Sheet.83</title>
			<path d="M0 246.99 L0 266 L70.56 266 L70.56 246.99 L0 246.99 L0 246.99 Z" class="st1"/>
		</g>
		<g id="shape84-110" v:mID="84" v:groupContext="shape" transform="translate(271.153,-210.714)">
			<title>Sheet.84</title>
			<path d="M0 246.99 L70.56 246.99 L70.56 266 L0 266 L0 246.99" class="st2"/>
		</g>
		<g id="shape85-113" v:mID="85" v:groupContext="shape" transform="translate(287.353,-164.743)">
			<title>Sheet.85</title>
			<path d="M0 246.99 L0 266 L67.67 266 L67.67 246.99 L0 246.99 L0 246.99 Z" class="st1"/>
		</g>
		<g id="shape86-115" v:mID="86" v:groupContext="shape" transform="translate(287.353,-164.743)">
			<title>Sheet.86</title>
			<path d="M0 246.99 L67.67 246.99 L67.67 266 L0 266 L0 246.99" class="st2"/>
		</g>
		<g id="shape87-118" v:mID="87" v:groupContext="shape" transform="translate(290.257,-172.873)">
			<title>Sheet.87</title>
			<desc>examples</desc>
			<v:textBlock v:margins="rect(0,0,0,0)"/>
			<v:textRect cx="25.6571" cy="262.147" width="51.32" height="7.69707"/>
			<path d="M51.31 258.3 L0 258.3 L0 266 L51.31 266 L51.31 258.3" class="st3"/>
			<text x="0" y="264.85" class="st4" v:langID="1033"><v:paragraph/><v:tabList/>examples</text>		</g>
		<g id="shape88-122" v:mID="88" v:groupContext="shape" transform="translate(287.353,-142.455)">
			<title>Sheet.88</title>
			<path d="M0 246.99 L0 266 L67.67 266 L67.67 246.99 L0 246.99 L0 246.99 Z" class="st1"/>
		</g>
		<g id="shape89-124" v:mID="89" v:groupContext="shape" transform="translate(287.353,-142.455)">
			<title>Sheet.89</title>
			<path d="M0 246.99 L67.67 246.99 L67.67 266 L0 266 L0 246.99" class="st2"/>
		</g>
		<g id="shape90-127" v:mID="90" v:groupContext="shape" transform="translate(290.257,-150.585)">
			<title>Sheet.90</title>
			<desc>include</desc>
			<v:textBlock v:margins="rect(0,0,0,0)"/>
			<v:textRect cx="25.6571" cy="262.147" width="51.32" height="7.69707"/>
			<path d="M51.31 258.3 L0 258.3 L0 266 L51.31 266 L51.31 258.3" class="st3"/>
			<text x="0" y="264.85" class="st4" v:langID="1033"><v:paragraph/><v:tabList/>include</text>		</g>
		<g id="shape91-131" v:mID="91" v:groupContext="shape" transform="translate(323.583,-120.224)">
			<title>Sheet.91</title>
			<path d="M0 246.99 L46.57 246.99 L46.57 266 L0 266 L0 246.99" class="st2"/>
		</g>
		<g id="shape92-134" v:mID="92" v:groupContext="shape" transform="translate(326.068,-128.355)">
			<title>Sheet.92</title>
			<desc>aie</desc>
			<v:textBlock v:margins="rect(0,0,0,0)"/>
			<v:textRect cx="16.6334" cy="262.147" width="33.27" height="7.69707"/>
			<path d="M33.27 258.3 L0 258.3 L0 266 L33.27 266 L33.27 258.3" class="st3"/>
			<text x="0" y="264.85" class="st4" v:langID="1033"><v:paragraph/><v:tabList/>aie</text>		</g>
		<g id="shape93-138" v:mID="93" v:groupContext="shape" transform="translate(323.583,-98.2927)">
			<title>Sheet.93</title>
			<path d="M0 246.99 L46.57 246.99 L46.57 266 L0 266 L0 246.99" class="st2"/>
		</g>
		<g id="shape94-141" v:mID="94" v:groupContext="shape" transform="translate(326.068,-107.136)">
			<title>Sheet.94</title>
			<desc>hw</desc>
			<v:textBlock v:margins="rect(0,0,0,0)"/>
			<v:textRect cx="16.6334" cy="262.147" width="33.27" height="7.69707"/>
			<path d="M33.27 258.3 L0 258.3 L0 266 L33.27 266 L33.27 258.3" class="st3"/>
			<text x="0" y="264.85" class="st4" v:langID="1033"><v:paragraph/><v:tabList/>hw</text>		</g>
		<g id="shape100-145" v:mID="100" v:groupContext="shape" transform="translate(287.353,-74.8254)">
			<title>Sheet.100</title>
			<path d="M0 246.99 L0 266 L67.67 266 L67.67 246.99 L0 246.99 L0 246.99 Z" class="st1"/>
		</g>
		<g id="shape101-147" v:mID="101" v:groupContext="shape" transform="translate(287.353,-74.8254)">
			<title>Sheet.101</title>
			<path d="M0 246.99 L67.67 246.99 L67.67 266 L0 266 L0 246.99" class="st2"/>
		</g>
		<g id="shape102-150" v:mID="102" v:groupContext="shape" transform="translate(290.257,-83.8998)">
			<title>Sheet.102</title>
			<desc>test</desc>
			<v:textBlock v:margins="rect(0,0,0,0)"/>
			<v:textRect cx="25.6571" cy="262.147" width="51.32" height="7.69707"/>
			<path d="M51.31 258.3 L0 258.3 L0 266 L51.31 266 L51.31 258.3" class="st3"/>
			<text x="0" y="264.85" class="st4" v:langID="1033"><v:paragraph/><v:tabList/>test</text>		</g>
		<g id="shape103-154" v:mID="103" v:groupContext="shape" transform="translate(323.583,-52.3588)">
			<title>Sheet.103</title>
			<path d="M0 246.99 L46.57 246.99 L46.57 266 L0 266 L0 246.99" class="st2"/>
		</g>
		<g id="shape104-157" v:mID="104" v:groupContext="shape" transform="translate(326.068,-60.4889)">
			<title>Sheet.104</title>
			<desc>aie</desc>
			<v:textBlock v:margins="rect(0,0,0,0)"/>
			<v:textRect cx="16.6334" cy="262.147" width="33.27" height="7.69707"/>
			<path d="M33.27 258.3 L0 258.3 L0 266 L33.27 266 L33.27 258.3" class="st3"/>
			<text x="0" y="264.85" class="st4" v:langID="1033"><v:paragraph/><v:tabList/>aie</text>		</g>
		<g id="shape105-161" v:mID="105" v:groupContext="shape" transform="translate(323.583,-30.4271)">
			<title>Sheet.105</title>
			<path d="M0 246.99 L46.57 246.99 L46.57 266 L0 266 L0 246.99" class="st2"/>
		</g>
		<g id="shape106-164" v:mID="106" v:groupContext="shape" transform="translate(326.068,-39.2705)">
			<title>Sheet.106</title>
			<desc>hw</desc>
			<v:textBlock v:margins="rect(0,0,0,0)"/>
			<v:textRect cx="16.6334" cy="262.147" width="33.27" height="7.69707"/>
			<path d="M33.27 258.3 L0 258.3 L0 266 L33.27 266 L33.27 258.3" class="st3"/>
			<text x="0" y="264.85" class="st4" v:langID="1033"><v:paragraph/><v:tabList/>hw</text>		</g>
		<g id="shape107-168" v:mID="107" v:groupContext="shape" transform="translate(273.514,-218.844)">
			<title>Sheet.107</title>
			<desc>L2</desc>
			<v:textBlock v:margins="rect(0,0,0,0)"/>
			<v:textRect cx="16.6334" cy="262.147" width="33.27" height="7.69707"/>
			<path d="M33.27 258.3 L0 258.3 L0 266 L33.27 266 L33.27 258.3" class="st3"/>
			<text x="0" y="264.85" class="st4" v:langID="1033"><v:paragraph/><v:tabList/>L2</text>		</g>
		<g id="shape108-172" v:mID="108" v:groupContext="shape" transform="translate(287.353,-186.732)">
			<title>Sheet.108</title>
			<path d="M0 246.99 L0 266 L67.67 266 L67.67 246.99 L0 246.99 L0 246.99 Z" class="st1"/>
		</g>
		<g id="shape109-174" v:mID="109" v:groupContext="shape" transform="translate(287.353,-186.732)">
			<title>Sheet.109</title>
			<path d="M0 246.99 L67.67 246.99 L67.67 266 L0 266 L0 246.99" class="st2"/>
		</g>
		<g id="shape110-177" v:mID="110" v:groupContext="shape" transform="translate(290.257,-194.862)">
			<title>Sheet.110</title>
			<desc>benchmarks</desc>
			<v:textBlock v:margins="rect(0,0,0,0)"/>
			<v:textRect cx="25.6571" cy="262.147" width="51.32" height="7.69707"/>
			<path d="M51.31 258.3 L0 258.3 L0 266 L51.31 266 L51.31 258.3" class="st3"/>
			<text x="0" y="264.85" class="st4" v:langID="1033"><v:paragraph/><v:tabList/>benchmarks</text>		</g>
		<g id="shape112-181" v:mID="112" v:groupContext="shape" v:layerMember="1" transform="translate(160.875,-231.975)">
			<title>Sheet.112</title>
			<path d="M7.2 261.83 L7.2 255.76" class="st5"/>
		</g>
		<g id="shape113-184" v:mID="113" v:groupContext="shape" v:layerMember="1" transform="translate(306.562,-228.712)">
			<title>Sheet.113</title>
			<path d="M0 258.8 L-269.77 258.8" class="st5"/>
		</g>
		<g id="shape114-187" v:mID="114" v:groupContext="shape" v:layerMember="1" transform="translate(44.2125,-225.787)">
			<title>Sheet.114</title>
			<path d="M-7.2 261.72 L-7.2 255.87" class="st5"/>
		</g>
		<g id="shape115-190" v:mID="115" v:groupContext="shape" v:layerMember="1" transform="translate(114.975,-225.787)">
			<title>Sheet.115</title>
			<path d="M7.2 261.72 L7.2 255.87" class="st5"/>
		</g>
		<g id="shape116-193" v:mID="116" v:groupContext="shape" v:layerMember="1" transform="translate(205.987,-225.787)">
			<title>Sheet.116</title>
			<path d="M7.2 261.72 L7.2 255.87" class="st5"/>
		</g>
		<g id="shape117-196" v:mID="117" v:groupContext="shape" v:layerMember="1" transform="translate(299.137,-225.787)">
			<title>Sheet.117</title>
			<path d="M7.2 261.72 L7.2 255.87" class="st5"/>
		</g>
		<g id="shape40-199" v:mID="40" v:groupContext="shape" transform="translate(337.118,0)">
			<title>Sheet.40</title>
			<desc>X24061-060321</desc>
			<v:userDefs>
				<v:ud v:nameU="Margin" v:prompt="" v:val="VT0(0):26"/>
				<v:ud v:nameU="Class" v:prompt="" v:val="VT4(Xilinx.Visio.XNumberShape)"/>
				<v:ud v:nameU="Comment" v:prompt="" v:val="VT4(X-Number: X24061-060321)"/>
			</v:userDefs>
			<v:textBlock v:margins="rect(0,0,0,0)"/>
			<v:textRect cx="18.3193" cy="262.993" width="36.64" height="6.00345"/>
			<path d="M0 266 L36.64 266 L36.64 259.99 L0 259.99 L0 266 Z" class="st6"/>
			<path d="M0 266 L36.64 266 L36.64 259.99 L0 259.99 L0 266" class="st3"/>
			<path d="M0 267.5 L36.64 267.5" class="st3"/>
			<text x="1.24" y="264.49" class="st7" v:langID="1033"><v:paragraph v:horizAlign="2"/><v:tabList/>X24061-060321</text>		</g>
	</g>
</svg>
